<svg width="368" height="298" viewBox="0 0 368 298" fill="none" xmlns="http://www.w3.org/2000/svg">
<path d="M298.294 100.55C299.443 80.7783 297.302 60.8498 291.791 41.6788C291.425 40.3729 290.406 39.3543 289.1 38.9886C269.929 33.5037 250.001 31.3359 230.229 32.5112L214.976 17.2318C196.667 -1.07728 166.97 -1.07728 148.661 17.2318L133.382 32.5112C113.61 31.362 93.6813 33.5037 74.5103 39.0147C73.2304 39.3804 72.1857 40.399 71.82 41.7049C66.3351 60.876 64.1673 80.8044 65.3426 100.576L50.0633 115.856C31.7281 134.139 31.7281 163.835 50.0372 182.144L65.3165 197.424C64.1412 217.196 66.309 237.124 71.7939 256.295C72.1596 257.601 73.1782 258.62 74.4841 258.985C93.6552 264.47 113.584 266.638 133.355 265.489L148.635 280.768C166.944 299.077 196.641 299.077 214.95 280.768L230.229 265.489C250.001 266.664 269.929 264.496 289.1 259.011C290.38 258.646 291.425 257.627 291.791 256.321C297.275 237.15 299.443 217.222 298.294 197.45L313.573 182.171C331.883 163.861 331.883 134.165 313.573 115.856L298.294 100.55Z" fill="#6EDBFF" stroke="white" stroke-width="2" stroke-linecap="round" stroke-linejoin="round"/>
<path d="M127.792 100.158C125.938 101.673 127.322 104.729 129.699 104.39C137.456 103.266 145.997 102.666 156.157 103.005C162.321 103.214 168.015 103.763 173.212 104.494C177.391 104.546 185.54 104.076 186.089 99.1919C186.402 96.3711 182.328 94.7518 171.097 96.789C166.683 95.5092 162.269 94.2555 157.855 92.9757C157.254 92.375 153.545 88.849 148.112 89.2407C143.228 89.5803 138.866 92.9757 137.012 97.886C136.281 97.9121 130.43 98.0166 127.792 100.158Z" fill="white" stroke="white" stroke-width="1.2" stroke-miterlimit="10" stroke-linecap="round" stroke-linejoin="round"/>
<path d="M223.02 141.243C207.61 139.284 175.85 149.757 167.962 124.919C161.616 104.859 177.052 88.7443 196.719 82.1363C197.006 81.7968 200.584 77.5395 199.096 72.1068C197.973 67.9801 194.368 64.8981 189.98 64.2451C157.306 74.3269 137.848 101.647 142.706 131.474C147.015 158.011 172.638 177.312 201.29 178.879" fill="#6EDBFF"/>
<path d="M167.335 122.542C161.589 95.7182 187.786 82.2672 191.469 81.0918C194.499 80.1255 198.887 81.7448 202.491 82.2933L196.745 82.1105C161.694 95.2742 166.682 118.676 167.335 122.542Z" fill="white"/>
<path d="M223.02 141.243C207.61 139.284 175.85 149.757 167.962 124.919C161.615 104.86 177.052 88.7445 196.719 82.1365" stroke="black" stroke-width="1.2" stroke-miterlimit="10" stroke-linecap="round" stroke-linejoin="round"/>
<path d="M178.227 137.743C178.201 137.743 178.201 137.717 178.175 137.717C178.201 137.717 178.201 137.717 178.227 137.743Z" fill="white"/>
<path d="M189.98 64.2451C157.306 74.3269 137.848 101.647 142.706 131.474C147.015 158.011 172.037 177.312 200.663 178.879" stroke="black" stroke-width="1.2" stroke-miterlimit="10" stroke-linecap="round" stroke-linejoin="round"/>
<path d="M187.212 141.243C185.201 143.541 180.5 149.444 179.089 158.533C177.731 167.257 179.246 171.749 180.421 174.57C186.011 176.607 193.428 178.462 199.671 178.801L220.278 171.802L222.655 145.526C222.864 143.097 220.984 141.008 218.555 141.008C209.413 141.008 197.398 143.306 187.212 141.243Z" fill="black" stroke="black" stroke-width="1.2" stroke-miterlimit="10" stroke-linecap="round" stroke-linejoin="round"/>
<path d="M191.495 141.948C191.155 141.896 190.842 141.817 190.502 141.765C189.379 141.582 188.282 141.4 187.211 141.243C186.454 141.06 185.723 140.877 184.965 140.694C183.006 143.019 178.54 148.869 177.339 157.698C176.346 165.037 178.096 170.887 179.167 173.734C180.186 174.936 185.566 176.425 186.689 176.555C182.197 166.526 181.935 152.866 191.495 141.948Z" fill="white" stroke="black" stroke-width="1.2" stroke-miterlimit="10" stroke-linecap="round" stroke-linejoin="round"/>
<mask id="mask0" mask-type="alpha" maskUnits="userSpaceOnUse" x="36" y="3" width="292" height="292">
<path d="M298.294 100.55C299.443 80.7783 297.302 60.8498 291.791 41.6788C291.425 40.3729 290.406 39.3543 289.1 38.9886C269.929 33.5037 250.001 31.3359 230.229 32.5112L214.976 17.2318C196.667 -1.07728 166.97 -1.07728 148.661 17.2318L133.382 32.5112C113.61 31.362 93.6813 33.5037 74.5103 39.0147C73.2304 39.3804 72.1857 40.399 71.82 41.7049C66.3351 60.876 64.1673 80.8044 65.3426 100.576L50.0633 115.856C31.7281 134.139 31.7281 163.835 50.0372 182.144L65.3165 197.424C64.1412 217.196 66.309 237.124 71.7939 256.295C72.1596 257.601 73.1782 258.62 74.4841 258.985C93.6552 264.47 113.584 266.638 133.355 265.489L148.635 280.768C166.944 299.077 196.641 299.077 214.95 280.768L230.229 265.489C250.001 266.664 269.929 264.496 289.1 259.011C290.38 258.646 291.425 257.627 291.791 256.321C297.275 237.15 299.443 217.222 298.294 197.45L313.573 182.171C331.883 163.861 331.883 134.165 313.573 115.856L298.294 100.55Z" fill="#C4C4C4"/>
</mask>
<g mask="url(#mask0)">
<path d="M286.071 162.373L262.407 138.709L219.808 143.437L203.249 171.828L228.192 267.108L230.582 266.439C250.223 267.406 270.243 264.314 289.361 258.855C290.641 258.489 295.081 255.303 295.447 253.997C300.932 234.852 299.678 216.464 298.529 196.745L302.447 192.801C294.716 178.253 286.071 162.373 286.071 162.373Z" fill="black"/>
</g>
<path d="M269.956 89.8155C261.258 91.5654 252.012 104.964 260.527 117.188C263.687 121.732 269.015 122.385 275.31 121.001C311.745 112.983 317.309 115.934 350.401 121.053C353.822 121.576 355.964 111.076 349.356 109.848C350.505 105.852 350.061 98.1734 342.617 96.8936C343.714 90.0767 332.562 73.1779 313.704 81.6142C306.443 72.969 298.869 70.9317 288.578 73.0996C277.87 75.3458 272.567 81.4575 269.956 89.8155Z" fill="white" stroke="#6EDBFF" stroke-width="1.2" stroke-miterlimit="10" stroke-linecap="round" stroke-linejoin="round"/>
<path d="M264.47 79.6812C265.913 79.6812 267.082 78.5119 267.082 77.0694C267.082 75.6269 265.913 74.4575 264.47 74.4575C263.028 74.4575 261.858 75.6269 261.858 77.0694C261.858 78.5119 263.028 79.6812 264.47 79.6812Z" fill="white"/>
<path d="M271.653 78.8455C273.096 78.8455 274.265 77.6762 274.265 76.2337C274.265 74.7912 273.096 73.6218 271.653 73.6218C270.211 73.6218 269.042 74.7912 269.042 76.2337C269.042 77.6762 270.211 78.8455 271.653 78.8455Z" fill="white"/>
<path d="M64.9508 156.339C64.7941 155.817 60.2755 147.929 66.9358 140.668C72.499 134.583 80.3346 133.642 81.3793 133.694C85.271 123.064 102.718 118.389 114.994 122.359C125.337 125.702 131.344 133.381 132.18 144.847C138.71 142.549 142.575 150.437 142.288 153.257C142.001 156.078 141.896 160.44 132.284 160.048C97.8602 160.179 66.1261 168.406 66.1261 168.406C56.41 171.488 55.078 157.724 64.9508 156.339Z" fill="white" stroke="#6EDBFF" stroke-width="1.2" stroke-miterlimit="10" stroke-linecap="round" stroke-linejoin="round"/>
<path d="M64.9511 134.844C65.2906 136.254 64.4548 137.665 63.0444 138.004C61.634 138.344 60.2236 137.508 59.8841 136.097C59.5445 134.687 60.3803 133.277 61.7907 132.937C63.175 132.598 64.5854 133.459 64.9511 134.844Z" fill="white"/>
<path d="M72.3954 131.892C72.735 133.303 71.8992 134.713 70.4888 135.053C69.0784 135.392 67.668 134.556 67.3284 133.146C66.9889 131.736 67.8247 130.325 69.2351 129.986C70.6455 129.646 72.0559 130.508 72.3954 131.892Z" fill="white"/>
<path d="M164.018 72.603C142.183 71.8455 95.8751 72.9164 68.2678 85.5317C23.0043 103.005 19.2955 46.3538 49.7498 45.6225C45.9626 13.2094 91.0693 9.23934 98.931 22.2725C118.807 -12.2562 173.735 14.8548 160.362 52.8573C161.589 52.5178 163.548 52.3872 165.716 52.6484C178.331 54.2155 176.738 73.047 164.018 72.603Z" fill="white" stroke="#6EDBFF" stroke-width="1.2" stroke-miterlimit="10" stroke-linecap="round" stroke-linejoin="round"/>
<path d="M35.7763 28.8548C37.6515 28.8548 39.1717 27.3346 39.1717 25.4594C39.1717 23.5841 37.6515 22.064 35.7763 22.064C33.901 22.064 32.3809 23.5841 32.3809 25.4594C32.3809 27.3346 33.901 28.8548 35.7763 28.8548Z" stroke="#6EDBFF" stroke-width="1.2" stroke-miterlimit="10" stroke-linecap="round" stroke-linejoin="round"/>
<path d="M46.0409 26.5042C47.9162 26.5042 49.4363 24.984 49.4363 23.1088C49.4363 21.2336 47.9162 19.7134 46.0409 19.7134C44.1657 19.7134 42.6455 21.2336 42.6455 23.1088C42.6455 24.984 44.1657 26.5042 46.0409 26.5042Z" stroke="#6EDBFF" stroke-width="1.2" stroke-miterlimit="10" stroke-linecap="round" stroke-linejoin="round"/>
<path d="M266.586 141.243V189.667L281.213 201.342C286.619 206.2 290.067 210.196 292.104 213.382C291.974 210.979 291.66 200.323 299.496 190.842C306.913 181.857 316.708 179.925 319.215 179.507C308.402 165.403 291.582 151.769 266.586 141.243Z" fill="black" stroke="black" stroke-width="1.2" stroke-miterlimit="10" stroke-linecap="round" stroke-linejoin="round"/>
<path d="M124.266 146.728C106.923 145.265 89.737 147.146 73.648 152.134C73.2823 148.869 72.9428 145.578 72.5771 142.314C88.6923 137.429 105.8 135.183 123.143 136.75C123.482 139.937 123.926 143.567 124.266 146.728Z" stroke="#6EDBFF" stroke-width="1.2" stroke-miterlimit="10" stroke-linecap="round" stroke-linejoin="round"/>
<path d="M73.6479 152.134C89.3713 143.855 106.218 138.814 123.247 137.247" stroke="#6EDBFF" stroke-width="1.2" stroke-miterlimit="10" stroke-linecap="round" stroke-linejoin="round"/>
<path d="M72.5771 142.314C89.0318 140.694 106.557 142.105 124.266 146.728" stroke="#6EDBFF" stroke-width="1.2" stroke-miterlimit="10" stroke-linecap="round" stroke-linejoin="round"/>
<path d="M98.957 151.403C107.419 150.463 116.065 150.332 124.736 151.037" stroke="#6EDBFF" stroke-width="1.2" stroke-miterlimit="10" stroke-linecap="round" stroke-linejoin="round"/>
<path d="M74.144 156.627C80.4125 154.642 86.8638 153.153 93.4195 152.16" stroke="#6EDBFF" stroke-width="1.2" stroke-miterlimit="10" stroke-linecap="round" stroke-linejoin="round"/>
<path d="M74.6406 161.093C93.7333 156.679 107.446 154.72 124.945 155.373" stroke="#6EDBFF" stroke-width="1.2" stroke-miterlimit="10" stroke-linecap="round" stroke-linejoin="round"/>
<path d="M304.589 108.176C296.022 108.438 287.482 109.456 279.045 111.285C278.523 103.606 278.001 95.9268 277.504 88.2741C286.332 86.9682 295.317 86.5503 304.302 86.9682C304.38 94.0463 304.485 101.124 304.589 108.176Z" stroke="#6EDBFF" stroke-width="1.2" stroke-miterlimit="10" stroke-linecap="round" stroke-linejoin="round"/>
<path d="M277.478 88.2742C286.411 94.0203 295.5 100.654 304.589 108.177" stroke="#6EDBFF" stroke-width="1.2" stroke-miterlimit="10" stroke-linecap="round" stroke-linejoin="round"/>
<path d="M304.275 86.968C295.813 94.3073 287.377 102.43 279.045 111.284" stroke="#6EDBFF" stroke-width="1.2" stroke-miterlimit="10" stroke-linecap="round" stroke-linejoin="round"/>
<path d="M332.876 110.214C326.215 109.038 319.451 108.385 312.686 108.176C312.686 101.333 312.712 94.4642 312.712 87.6211C319.738 88.3785 326.738 89.6583 333.659 91.4605C333.398 97.7029 333.137 103.945 332.876 110.214Z" stroke="#6EDBFF" stroke-width="1.2" stroke-miterlimit="10" stroke-linecap="round" stroke-linejoin="round"/>
<path d="M312.738 87.6211C319.477 94.6731 326.215 102.195 332.876 110.214" stroke="#6EDBFF" stroke-width="1.2" stroke-miterlimit="10" stroke-linecap="round" stroke-linejoin="round"/>
<path d="M333.685 91.4607C326.737 96.5016 319.738 102.091 312.686 108.177" stroke="#6EDBFF" stroke-width="1.2" stroke-miterlimit="10" stroke-linecap="round" stroke-linejoin="round"/>
<path d="M101.046 61.6856C88.1961 63.4878 75.3458 66.3609 62.6521 70.3309C61.3201 59.8312 59.2828 47.5294 57.1411 38.1006C69.8086 33.8955 84.1216 31.5187 96.9719 29.5076C98.3301 40.2162 99.6883 50.9509 101.046 61.6856Z" stroke="#6EDBFF" stroke-width="1.2" stroke-miterlimit="10" stroke-linecap="round" stroke-linejoin="round"/>
<path d="M96.9721 29.5076C85.48 42.2534 74.0139 55.8612 62.6523 70.3309" stroke="#6EDBFF" stroke-width="1.2" stroke-miterlimit="10" stroke-linecap="round" stroke-linejoin="round"/>
<path d="M57.1675 38.127C71.167 44.4215 86.8382 52.7533 101.047 61.712" stroke="#6EDBFF" stroke-width="1.2" stroke-miterlimit="10" stroke-linecap="round" stroke-linejoin="round"/>
<path d="M109.457 27.8883C121.837 26.6085 134.217 26.3473 146.44 27.0786" stroke="#6EDBFF" stroke-width="1.2" stroke-miterlimit="10" stroke-linecap="round" stroke-linejoin="round"/>
<path d="M137.507 33.2686C140.772 33.3469 144.011 33.4775 147.25 33.6865" stroke="#6EDBFF" stroke-width="1.2" stroke-miterlimit="10" stroke-linecap="round" stroke-linejoin="round"/>
<path d="M110.266 34.3655C117.161 33.6864 124.057 33.2947 130.952 33.2424" stroke="#6EDBFF" stroke-width="1.2" stroke-miterlimit="10" stroke-linecap="round" stroke-linejoin="round"/>
<path d="M124.371 39.9548C132.285 39.6675 140.198 39.772 148.034 40.2944" stroke="#6EDBFF" stroke-width="1.2" stroke-miterlimit="10" stroke-linecap="round" stroke-linejoin="round"/>
<path d="M111.076 40.8432C113.505 40.6081 115.934 40.4253 118.363 40.2686" stroke="#6EDBFF" stroke-width="1.2" stroke-miterlimit="10" stroke-linecap="round" stroke-linejoin="round"/>
<path d="M111.912 47.3207C124.292 46.1714 136.646 46.0408 148.844 46.9028" stroke="#6EDBFF" stroke-width="1.2" stroke-miterlimit="10" stroke-linecap="round" stroke-linejoin="round"/>
<path d="M143.594 52.6748C145.37 52.7532 147.172 52.8054 149.444 53.0143" stroke="#6EDBFF" stroke-width="1.2" stroke-miterlimit="10" stroke-linecap="round" stroke-linejoin="round"/>
<path d="M112.721 53.7979C121.81 52.9883 130.978 52.5442 139.989 52.8315" stroke="#6EDBFF" stroke-width="1.2" stroke-miterlimit="10" stroke-linecap="round" stroke-linejoin="round"/>
<path d="M113.531 60.3013C125.911 59.2566 137.978 58.3947 149.81 58.8387" stroke="#6EDBFF" stroke-width="1.2" stroke-miterlimit="10" stroke-linecap="round" stroke-linejoin="round"/>
<path d="M213.696 115.569C218.632 119.46 226.546 157.437 228.165 168.145C237.568 158.795 248.225 148.217 257.627 138.866C251.803 133.747 243.811 105.226 242.635 99.3489C232.971 104.755 223.334 110.162 213.696 115.569Z" fill="#6EDBFF"/>
<path d="M213.696 115.569C218.632 119.46 226.546 157.437 228.165 168.145C237.568 158.795 248.225 148.217 257.627 138.866C251.803 133.747 243.811 105.226 242.635 99.3489" stroke="black" stroke-width="1.2" stroke-miterlimit="10" stroke-linecap="round" stroke-linejoin="round"/>
<path d="M220.095 131.396C220.8 128.314 221.427 124.84 221.767 121.027C221.95 119.094 222.028 117.24 222.08 115.49C219.834 115.229 217.562 114.941 215.315 114.68C214.793 114.967 214.245 115.281 213.722 115.568C215.577 117.057 217.875 123.43 220.095 131.396Z" fill="black"/>
<path d="M215.184 73.4129C198.077 92.6362 196.222 109.665 202.151 115.464C207.871 121.027 221.401 116.3 225.475 113.897L244.202 105.774L229.654 71.898L220.408 69.5735L215.184 73.4129Z" fill="#6EDBFF"/>
<path d="M223.02 70.1479L215.184 73.3867C198.077 92.6099 196.222 109.639 202.151 115.438C202.621 115.908 203.17 116.299 203.718 116.613C198.103 107.837 208.838 77.5395 223.02 70.1479Z" fill="white"/>
<path d="M215.184 73.4128C198.077 92.6361 196.222 109.665 202.151 115.464C207.871 121.027 221.401 116.3 225.475 113.897" stroke="black" stroke-width="1.2" stroke-miterlimit="10" stroke-linecap="round" stroke-linejoin="round"/>
<path d="M208.394 88.7445C203.64 86.8901 200.167 85.9498 199.252 87.5169C198.417 88.9535 201.159 91.4347 205.155 94.2555" fill="#6EDBFF"/>
<path d="M208.394 88.7445C203.64 86.8901 200.167 85.9498 199.252 87.5169C198.417 88.9535 201.159 91.4347 205.155 94.2555" stroke="black" stroke-width="1.2" stroke-miterlimit="10" stroke-linecap="round" stroke-linejoin="round"/>
<path d="M209.438 99.3746C210.561 100.524 212.259 100.759 213.539 100.028C214.583 99.4268 215.184 98.2515 215.132 96.9717" stroke="black" stroke-width="1.2" stroke-miterlimit="10" stroke-linecap="round" stroke-linejoin="round"/>
<path d="M230.595 89.1102C233.076 87.308 235.74 87.9871 237.098 89.6848C238.483 91.4348 237.098 94.6212 235.27 97.4159C234.643 98.3562 234.565 99.5315 235.061 100.524C235.845 102.065 237.151 104.128 239.162 105.565C241.408 107.184 243.628 107.654 244.803 107.811C248.434 103.423 257.627 90.1811 255.851 78.3755C255.198 78.8456 252.874 80.0471 251.568 77.6964C250.732 73.8831 254.99 72.8122 255.251 70.122C244.229 70.6183 234.225 62.3909 223.151 68.3459C220.043 70.0175 217.274 71.5324 215.211 73.3868C216.36 72.8906 220.617 71.2451 224.483 73.1256C229.498 75.6069 233.389 81.4313 230.595 89.1102Z" fill="black" stroke="black" stroke-width="1.2" stroke-miterlimit="10" stroke-linecap="round" stroke-linejoin="round"/>
<path d="M245.848 148.19C242.165 149.836 238.456 151.507 234.773 153.153C233.624 155.477 232.449 157.932 231.326 160.518C230.177 163.13 229.132 165.69 228.192 168.145C228.087 169.607 227.983 171.07 227.904 172.533L235.009 177.312" fill="black"/>
<path d="M245.848 148.19C242.165 149.836 238.456 151.507 234.773 153.153C233.624 155.477 232.449 157.932 231.326 160.518C230.177 163.13 229.132 165.69 228.192 168.145C228.087 169.607 227.983 171.07 227.904 172.533L235.009 177.312" stroke="black" stroke-width="1.2" stroke-miterlimit="10" stroke-linecap="round" stroke-linejoin="round"/>
<path d="M212.808 160.257C213.905 155.686 215.08 149.627 217.901 149.914C221.531 150.28 224.901 157.776 227.251 162.765C226.625 159.865 223.543 144.899 222.811 141.896C222.132 139.127 221.453 136.411 220.748 133.747C219.129 135.209 216.621 137.821 214.819 141.791C212.285 147.355 211.972 153.205 212.808 160.257Z" fill="white" stroke="black" stroke-width="1.2" stroke-miterlimit="10" stroke-linecap="round" stroke-linejoin="round"/>
<path d="M233.311 156.914C241.591 145.004 256.792 162.686 259.717 165.664C261.519 162.268 263.347 158.481 265.071 154.302C266.116 151.769 267.03 149.339 267.814 146.963C269.25 142.731 268.205 138.03 265.071 134.844C259.926 129.568 253.135 125.023 251.019 126.747C253.083 130.404 251.202 134.034 248.225 137.325C244.829 141.138 234.878 149.627 233.311 156.914Z" fill="white" stroke="black" stroke-width="1.2" stroke-miterlimit="10" stroke-linecap="round" stroke-linejoin="round"/>
<path d="M212.965 64.2451C220.461 63.0437 223.908 61.3982 223.908 60.249C223.908 58.3684 213.304 56.5663 191.13 63.4616L183.973 69.1032L201.603 77.3305C201.89 77.3566 205.599 77.1216 205.599 77.1216C207.088 76.3902 208.734 75.6589 210.483 74.9537C212.547 74.1441 214.454 73.3344 216.308 72.9426C225.658 70.9837 227.905 70.383 227.905 68.8159C227.905 67.2749 225.267 67.2749 214.871 68.7114" fill="#6EDBFF"/>
<path d="M212.573 63.958C212.573 63.958 212.573 67.9541 211.45 71.1145C210.562 73.5958 208.603 75.2673 207.61 76.1293C212.233 74.8233 214.401 73.0734 214.401 73.0734C214.401 73.0734 215.707 66.1258 212.573 63.958Z" fill="white"/>
<path d="M214.375 67.9278C227.173 65.3159 228.349 63.6704 228.114 62.6518C228.035 62.26 226.233 61.8421 221.062 62.2861C218.737 62.469 215.76 62.8346 211.946 63.4615" fill="#6EDBFF"/>
<path d="M214.846 69.9131C228.375 69.0251 228.845 65.7864 228.767 65.3162C228.688 64.82 226.756 63.9319 214.062 65.9953" fill="#6EDBFF"/>
<path d="M223.908 60.2491C223.908 59.9356 223.595 59.5961 222.968 59.3349L222.341 59.0999C223.046 60.3274 217.64 62.7042 216.36 63.2788C220.696 62.2341 223.908 61.1371 223.908 60.2491Z" fill="white"/>
<path d="M228.113 62.652C228.087 62.4953 227.826 62.1296 227.043 62.0251L226.364 61.8945C227.043 62.9915 221.767 65.4467 220.591 65.8123H223.073C227.748 64.3758 228.296 63.3572 228.113 62.652Z" fill="white"/>
<path d="M220.826 69.26C228.505 67.9802 228.845 65.7078 228.766 65.3161C228.74 65.1594 229.158 65.1071 228.531 64.9765C228.531 64.9765 228.009 64.6892 227.095 64.7415C227.304 65.3683 226.154 67.3011 220.826 69.26Z" fill="white"/>
<path d="M227.904 68.8424C227.904 68.5289 227.147 68.0066 226.886 67.8237C227.251 69.1558 222.707 71.0624 221.479 71.5326C226.285 70.4095 227.904 70.0438 227.904 68.8424Z" fill="white"/>
<path d="M188.596 64.6894C212.991 56.8277 223.908 58.3687 223.908 60.2493C223.908 60.8239 223.047 61.5291 221.244 62.2343C219.442 62.9395 216.726 63.6447 212.965 64.2454" stroke="black" stroke-width="1.2" stroke-miterlimit="10" stroke-linecap="round" stroke-linejoin="round"/>
<path d="M214.297 67.5362C227.252 65.0288 228.349 63.6706 228.114 62.6781C228.009 62.2602 226.912 61.3983 221.062 62.3125" stroke="black" stroke-width="1.2" stroke-miterlimit="10" stroke-linecap="round" stroke-linejoin="round"/>
<path d="M214.845 69.9129C228.375 69.0249 228.845 65.7862 228.766 65.3161C228.714 65.081 228.349 64.3758 225.946 64.637" stroke="black" stroke-width="1.2" stroke-miterlimit="10" stroke-linecap="round" stroke-linejoin="round"/>
<path d="M201.603 77.3306C201.89 77.3568 205.599 77.1217 205.599 77.1217C207.087 76.3904 208.733 75.659 210.483 74.9538C212.546 74.1442 214.453 73.3345 216.307 72.9427C225.658 70.9838 227.904 70.3831 227.904 68.816C227.904 68.2153 227.486 67.8496 226.363 67.719" stroke="black" stroke-width="1.2" stroke-miterlimit="10" stroke-linecap="round" stroke-linejoin="round"/>
<path d="M211.528 63.0176C212.129 63.6444 212.99 64.663 213.617 66.0996C214.531 68.2152 214.505 71.7673 214.427 72.7598" stroke="black" stroke-width="1.2" stroke-miterlimit="10" stroke-linecap="round" stroke-linejoin="round"/>
<path d="M211.032 78.4799C209.83 78.271 208.368 78.1143 206.618 78.0359C205.678 77.1218 203.614 75.398 200.48 74.6144C198.495 74.1443 196.797 74.1965 195.674 74.3532L192.122 83.9126C193.663 83.3119 195.204 82.7373 196.745 82.1365C201.499 82.3194 205.338 82.3977 208.263 82.3455L211.032 78.4799Z" fill="#6EDBFF"/>
<path d="M202.491 82.3194C199.539 81.8754 196.066 80.7 193.245 80.8306C193.088 80.9351 192.252 81.4575 192.017 82.5022C191.861 83.1552 192.017 83.6775 192.096 83.9126C193.637 83.3119 195.178 82.7373 196.719 82.1366L202.491 82.3194Z" fill="white"/>
<path d="M192.096 83.9126C193.637 83.3119 195.178 82.7373 196.719 82.1365C201.473 82.3194 205.312 82.3977 208.237 82.3455L211.032 78.4538C209.831 78.2449 208.368 78.0882 206.618 78.0098C205.678 77.0957 203.614 75.3718 200.48 74.5883C198.495 74.1181 196.798 74.1704 195.674 74.3271" stroke="black" stroke-width="1.2" stroke-miterlimit="10" stroke-linecap="round" stroke-linejoin="round"/>
<path d="M136.698 170.287L147.746 208.185L145.996 213.461C151.194 221.14 157.645 226.624 160.884 229.132C155.869 210.509 149.314 186.271 144.299 167.623L136.698 170.287Z" fill="black"/>
<path d="M163.157 256.53L158.325 259.064C160.179 263.922 172.899 273.664 172.899 273.664C172.899 273.664 170.391 264.392 168.276 256.556H163.157V256.53Z" fill="black"/>
<path d="M214.767 221.479L151.299 202.386C151.273 202.386 151.273 202.386 151.247 202.36H151.221C150.646 202.177 150.045 202.099 149.418 202.099C145.971 202.099 143.15 204.894 143.15 208.368C143.15 211.815 145.945 214.636 149.418 214.636C149.941 214.636 150.463 214.558 150.959 214.453L214.767 236.732V221.479Z" fill="#6EDBFF"/>
<path d="M147.25 214.218L214.871 237.046L214.767 230.673C214.767 230.673 143.515 209.673 143.855 210.222C144.403 211.058 147.25 214.218 147.25 214.218Z" fill="black"/>
<path d="M144.691 205.129L214.741 225.998V222.184L151.221 202.36C151.09 202.308 146.023 201.551 144.691 205.129Z" fill="white"/>
<path d="M151.221 202.36C150.62 202.177 150.045 202.099 149.418 202.099C146.101 202.099 143.411 204.789 143.411 208.106C143.411 211.371 145.945 214.061 149.183 214.166C149.418 214.375 149.706 214.453 149.915 214.479L151.403 215.002L214.741 236.706V222.184L151.221 202.36Z" stroke="black" stroke-width="1.2" stroke-miterlimit="10" stroke-linecap="round" stroke-linejoin="round"/>
<path d="M161.981 219.703L145.997 214.296" stroke="#6EDBFF" stroke-width="1.2" stroke-miterlimit="10" stroke-linecap="round" stroke-linejoin="round"/>
<path d="M158.325 260.135L174.675 265.593" stroke="#6EDBFF" stroke-width="1.2" stroke-miterlimit="10" stroke-linecap="round" stroke-linejoin="round"/>
<mask id="mask1" mask-type="alpha" maskUnits="userSpaceOnUse" x="36" y="3" width="292" height="292">
<path d="M298.294 100.55C299.443 80.7783 297.302 60.8498 291.791 41.6788C291.425 40.3729 290.406 39.3543 289.1 38.9886C269.929 33.5037 250.001 31.3359 230.229 32.5112L214.976 17.2318C196.667 -1.07728 166.97 -1.07728 148.661 17.2318L133.382 32.5112C113.61 31.362 93.6813 33.5037 74.5103 39.0147C73.2304 39.3804 72.1857 40.399 71.82 41.7049C66.3351 60.876 64.1673 80.8044 65.3426 100.576L50.0633 115.856C31.7281 134.139 31.7281 163.835 50.0372 182.144L65.3165 197.424C64.1412 217.196 66.309 237.124 71.7939 256.295C72.1596 257.601 73.1782 258.62 74.4841 258.985C93.6552 264.47 113.584 266.638 133.355 265.489L148.635 280.768C166.944 299.077 196.641 299.077 214.95 280.768L230.229 265.489C250.001 266.664 269.929 264.496 289.1 259.011C290.38 258.646 291.425 257.627 291.791 256.321C297.276 237.15 299.443 217.222 298.294 197.45L313.574 182.171C331.883 163.861 331.883 134.165 313.574 115.856L298.294 100.55Z" fill="#C4C4C4"/>
</mask>
<g mask="url(#mask1)">
<path d="M128.445 168.976L161.015 289.513C163.052 290.557 165.559 291.654 168.511 292.569C172.193 293.718 175.537 294.24 178.227 294.449C167.283 253.913 155.216 209.172 144.299 168.636L128.445 168.976Z" fill="#6EDBFF"/>
<path d="M178.227 294.475C167.283 253.939 155.216 209.198 144.299 168.662L128.445 168.976L161.015 289.513" stroke="black" stroke-width="1.2" stroke-miterlimit="10" stroke-linecap="round" stroke-linejoin="round"/>
<path d="M221.453 274.264L228.14 267.578L163.052 248.015C163.026 248.015 163.026 248.015 163 247.989H162.974C162.399 247.806 161.799 247.728 161.172 247.728C157.724 247.728 154.903 250.523 154.903 253.996C154.903 257.444 157.698 260.265 161.172 260.265C161.694 260.265 162.217 260.187 162.713 260.082L216.752 278.966L221.453 274.264Z" fill="#6EDBFF"/>
<path d="M159.056 259.899L216.778 278.94L220.827 274.892C220.827 274.892 155.295 255.329 155.635 255.851C156.183 256.687 159.056 259.899 159.056 259.899Z" fill="black"/>
<path d="M156.497 250.758L224.666 271.078L226.547 267.839L163 247.989C162.87 247.937 157.803 247.206 156.497 250.758Z" fill="white"/>
<path d="M225.633 266.951L163.001 247.989H162.975C162.4 247.806 161.826 247.728 161.199 247.728C157.882 247.728 155.191 250.418 155.191 253.735C155.191 257 157.725 259.69 160.964 259.795C161.199 260.004 161.486 260.082 161.695 260.108L163.184 260.631L216.753 278.94" stroke="black" stroke-width="1.2" stroke-miterlimit="10" stroke-linecap="round" stroke-linejoin="round"/>
<path d="M196.927 180.551L222.027 273.664L230.165 265.724L235.778 265.92L212.807 180.551H196.927Z" fill="#6EDBFF"/>
<path d="M235.531 264.888L212.808 180.551L197.006 180.865L222.027 273.664" stroke="black" stroke-width="1.2" stroke-miterlimit="10" stroke-linecap="round" stroke-linejoin="round"/>
<path d="M233.7 265.92L235.765 265.724C228.191 237.621 220.382 208.681 212.807 180.578L204.867 182.719L214.583 209.7L210.979 232.632C216.464 239.057 222.341 246.762 228.008 255.877C229.863 258.907 232.107 263.021 233.7 265.92Z" fill="black"/>
<path d="M204.867 183.633C209.252 183.633 212.807 182.253 212.807 180.551C212.807 178.849 209.252 177.469 204.867 177.469C200.482 177.469 196.927 178.849 196.927 180.551C196.927 182.253 200.482 183.633 204.867 183.633Z" fill="white" stroke="black" stroke-width="1.2" stroke-miterlimit="10" stroke-linecap="round" stroke-linejoin="round"/>
<path d="M228.844 162.764C225.475 183.163 235.67 243.115 241.495 266.439" stroke="#6EDBFF" stroke-width="1.2" stroke-miterlimit="10" stroke-linecap="round" stroke-linejoin="round"/>
<path d="M236.298 266.959L229.681 243.183" stroke="#6EDBFF" stroke-width="1.2" stroke-miterlimit="10" stroke-linecap="round" stroke-linejoin="round"/>
</g>
<path d="M230.229 32.5113L214.976 17.2319M65.3426 100.576L50.0633 115.856C31.7281 134.139 31.7281 163.835 50.0372 182.145L65.3165 197.424C64.1412 217.196 66.309 237.124 71.7939 256.295C72.1596 257.601 73.1782 258.62 74.4841 258.985C93.6552 264.47 113.584 266.638 133.355 265.489L148.635 280.768C166.944 299.077 196.641 299.077 214.95 280.768L230.229 265.489C248.253 266.56 266.408 264.853 284 260.388" stroke="white" stroke-width="2" stroke-linecap="round" stroke-linejoin="round"/>
<path d="M319.215 179.532C344.106 217.039 329.715 246.135 318.693 254.597C289.388 277.059 213.879 235.191 213.879 235.191C213.879 235.191 226.416 215.733 231.431 205.39C252.874 224.796 287.037 231.221 294.037 226.494C301.089 221.74 300.253 209.673 293.436 202.308C294.089 199.696 296.466 191.678 304.223 185.644C310.204 180.995 316.394 179.872 319.215 179.532Z" fill="#6EDBFF"/>
<path d="M200.115 203.17C191.313 194.42 196.51 183.633 197.32 182.144C197.895 184.051 198.495 185.958 199.07 187.864C201.212 196.562 214.584 196.536 216.282 193.636L213.357 182.771C219.416 181.57 223.752 199.069 232.084 206.017C235.845 209.151 234.643 211.24 235.61 216.046L222.968 232.631L215.29 236.027C215.29 236.027 194.29 225.449 194.995 213.382" fill="#6EDBFF"/>
<path d="M197.869 210.718C194.578 206.513 189.876 196.144 195.205 192.827C197.79 196.066 200.402 199.33 202.988 202.569" fill="#6EDBFF"/>
<path d="M197.868 217.64C193.95 212.808 190.659 205.024 195.988 201.707C198.573 204.946 201.185 208.211 203.771 211.449" fill="#6EDBFF"/>
<path d="M197.607 200.036C196.928 197.084 197.581 188.256 198.835 187.002C198.339 185.383 197.842 183.764 197.346 182.144C196.615 183.476 192.488 192.043 197.607 200.036Z" fill="white"/>
<path d="M196.301 194.211C195.935 193.741 195.544 193.271 195.178 192.801C191.182 195.282 192.853 201.759 195.309 206.618C194.786 204.424 194.159 197.502 195.674 195.857C195.909 195.308 196.118 194.76 196.301 194.211Z" fill="white"/>
<path d="M198.077 222.184C197.633 221.087 197.189 219.755 196.928 218.162C196.797 217.404 196.719 216.699 196.693 216.046C196.118 214.61 194.212 208.89 195.1 206.147C194.812 204.476 194.656 202.856 194.656 202.856C192.305 205.494 193.141 209.621 195.073 213.356C194.891 216.438 196.118 219.442 198.077 222.184Z" fill="white"/>
<path d="M249.191 218.005C249.191 218.005 238.822 211.815 232.684 206.513C224.378 199.565 223.333 185.278 213.382 182.771L214.819 188.125C221.113 189.536 223.725 202.882 230.438 207.662C242.818 216.516 249.191 218.005 249.191 218.005Z" fill="white"/>
<path d="M215.342 236.001C215.342 236.001 194.186 224.535 195.074 213.461" stroke="black" stroke-width="1.2" stroke-miterlimit="10" stroke-linecap="round" stroke-linejoin="round"/>
<path d="M200.114 203.17C191.312 194.42 196.51 183.633 197.32 182.145C197.894 184.051 198.495 185.958 199.069 187.865C201.211 196.562 214.584 196.536 216.282 193.637L213.356 182.771C219.703 181.622 224.431 197.058 231.248 205.207" stroke="black" stroke-width="1.2" stroke-miterlimit="10" stroke-linecap="round" stroke-linejoin="round"/>
<path d="M197.868 210.718C194.577 206.513 189.745 196.196 195.073 192.879" stroke="black" stroke-width="1.2" stroke-miterlimit="10" stroke-linecap="round" stroke-linejoin="round"/>
<path d="M197.868 217.639C194.603 213.617 191.678 207.662 193.924 203.823" stroke="black" stroke-width="1.2" stroke-miterlimit="10" stroke-linecap="round" stroke-linejoin="round"/>
<path d="M203.771 200.506C202.935 202.752 202.125 205.547 201.655 208.812C200.819 214.74 201.498 219.755 202.256 223.125" stroke="black" stroke-width="1.2" stroke-miterlimit="10" stroke-linecap="round" stroke-linejoin="round"/>
<path d="M136.359 171.253C140.744 171.253 144.299 169.627 144.299 167.622C144.299 165.617 140.744 163.992 136.359 163.992C131.974 163.992 128.419 165.617 128.419 167.622C128.419 169.627 131.974 171.253 136.359 171.253Z" fill="white" stroke="black" stroke-width="1.2" stroke-miterlimit="10" stroke-linecap="round" stroke-linejoin="round"/>
<path d="M231.431 205.39C252.874 224.796 287.037 231.221 294.037 226.494C301.089 221.74 300.253 209.674 293.436 202.308" stroke="black" stroke-width="1.2" stroke-miterlimit="10" stroke-linecap="round" stroke-linejoin="round"/>
<path d="M319.215 179.532C344.289 215.968 330.368 247.232 319.032 254.545C285.496 276.197 215.342 236.001 215.342 236.001" stroke="black" stroke-width="1.2" stroke-miterlimit="10" stroke-linecap="round" stroke-linejoin="round"/>
<path d="M312.503 171.645C309.812 172.115 299.443 174.596 292.13 183.45C288.944 187.29 287.115 191.338 286.044 194.916L293.436 202.308C294.481 198.704 296.335 194.681 299.522 190.842C306.939 181.857 316.734 179.924 319.241 179.506C317.204 176.868 314.958 174.257 312.503 171.645Z" fill="white" stroke="black" stroke-width="1.2" stroke-miterlimit="10" stroke-linecap="round" stroke-linejoin="round"/>
<path d="M312.503 171.645C309.812 172.115 299.443 174.596 292.13 183.45C288.944 187.29 287.115 191.338 286.044 194.916L293.436 202.308C294.481 198.704 296.335 194.681 299.522 190.842C306.939 181.857 316.734 179.924 319.241 179.506C317.204 176.868 314.958 174.257 312.503 171.645Z" fill="white" stroke="black" stroke-width="1.2" stroke-miterlimit="10" stroke-linecap="round" stroke-linejoin="round"/>
<path d="M276.276 188.465C278.862 189.484 285.966 193.01 292.94 200.323" stroke="white" stroke-width="1.2" stroke-miterlimit="10" stroke-linecap="round" stroke-linejoin="round"/>
</svg>
